<svg width="50" height="50" viewBox="0 0 50 50" fill="none" xmlns="http://www.w3.org/2000/svg">
<path d="M15.9338 37.9759H19.168C19.4824 37.9759 19.707 38.0657 19.9316 38.2902L22.2375 40.5801C24.124 42.4808 25.8759 42.4658 27.7626 40.5801L30.0684 38.2902C30.293 38.0657 30.5175 37.9759 30.832 37.9759H34.0662C36.7463 37.9759 37.9891 36.7487 37.9891 34.0547V30.8219C37.9891 30.5076 38.0789 30.2982 38.3036 30.0587L40.5794 27.7538C42.481 25.868 42.466 24.132 40.5794 22.2313L38.3036 19.9264C38.0789 19.7019 37.9891 19.4774 37.9891 19.1781V15.9304C37.9891 13.2663 36.7614 12.0091 34.0662 12.0091H30.832C30.5175 12.0091 30.293 11.9343 30.0684 11.7098L27.7626 9.41995C25.8759 7.51921 24.124 7.53418 22.2375 9.41995L19.9316 11.7098C19.707 11.9343 19.4824 12.0091 19.168 12.0091H15.9338C13.2537 12.0091 12.0109 13.2364 12.0109 15.9304V19.1781C12.0109 19.4774 11.936 19.7019 11.7114 19.9264L9.42057 22.2313C7.519 24.132 7.53397 25.868 9.42057 27.7538L11.7114 30.0587C11.936 30.2982 12.0109 30.5076 12.0109 30.8219V34.0547C12.0109 36.7336 13.2537 37.9759 15.9338 37.9759ZM15.9338 35.5962C14.6012 35.5962 14.3916 35.3868 14.3916 34.0547V30.0287C14.3916 29.5798 14.2569 29.2355 13.9274 28.9062L11.0976 26.0925C10.1543 25.1347 10.1543 24.8653 11.0976 23.9075L13.9274 21.0937C14.2569 20.7645 14.3916 20.4203 14.3916 19.9563V15.9304C14.3916 14.5834 14.5863 14.3888 15.9338 14.3888H19.9616C20.4257 14.3888 20.7701 14.2691 21.0995 13.9248L23.9145 11.0962C24.8728 10.1533 25.1422 10.1533 26.0856 11.0962L28.9154 13.9248C29.2299 14.2691 29.5893 14.3888 30.0384 14.3888H34.0662C35.3988 14.3888 35.6084 14.5983 35.6084 15.9304V19.9563C35.6084 20.4203 35.7581 20.7645 36.0875 21.0937L38.9175 23.9075C39.8607 24.8653 39.8607 25.1347 38.9175 26.0925L36.0875 28.9062C35.7581 29.2355 35.6084 29.5798 35.6084 30.0287V34.0547C35.6084 35.3868 35.3988 35.5962 34.0662 35.5962H30.0384C29.5893 35.5962 29.2299 35.731 28.9154 36.0752L26.0856 38.9039C25.1422 39.8467 24.8728 39.8467 23.9145 38.9039L21.0995 36.0752C20.7701 35.731 20.4257 35.5962 19.9616 35.5962H15.9338Z" fill="#FF8A00"/>
<path d="M15.9338 35.5962C14.6012 35.5962 14.3916 35.3868 14.3916 34.0547V30.0287C14.3916 29.5798 14.2569 29.2355 13.9274 28.9062L11.0976 26.0925C10.1543 25.1347 10.1543 24.8653 11.0976 23.9075L13.9274 21.0937C14.2569 20.7645 14.3916 20.4203 14.3916 19.9563V15.9304C14.3916 14.5834 14.5863 14.3888 15.9338 14.3888H19.9616C20.4257 14.3888 20.7701 14.2691 21.0995 13.9248L23.9145 11.0962C24.8728 10.1533 25.1422 10.1533 26.0856 11.0962L28.9154 13.9248C29.2299 14.2691 29.5893 14.3888 30.0384 14.3888H34.0662C35.3988 14.3888 35.6084 14.5983 35.6084 15.9304V19.9563C35.6084 20.4203 35.7581 20.7645 36.0875 21.0937L38.9175 23.9075C39.8607 24.8653 39.8607 25.1347 38.9175 26.0925L36.0875 28.9062C35.7581 29.2355 35.6084 29.5798 35.6084 30.0287V34.0547C35.6084 35.3868 35.3988 35.5962 34.0662 35.5962H30.0384C29.5893 35.5962 29.2299 35.731 28.9154 36.0752L26.0856 38.9039C25.1422 39.8467 24.8728 39.8467 23.9145 38.9039L21.0995 36.0752C20.7701 35.731 20.4257 35.5962 19.9616 35.5962H15.9338Z" fill="#944E1A"/>
<path d="M19.4097 43.4092C20.7386 44.7446 22.6092 46.0049 25.0082 46C27.4019 45.9951 29.2656 44.7317 30.5853 43.4142C30.587 43.4125 30.5886 43.4109 30.5903 43.4093L32.0336 41.9759H34.0662C35.9347 41.9759 38.1544 41.555 39.8564 39.8587C41.561 38.1598 41.9891 35.9369 41.9891 34.0547V32.0192L43.4123 30.5778C44.7411 29.2551 46.0049 27.3898 46 24.9899C45.9951 22.5966 44.7289 20.7351 43.4226 19.4177C43.4212 19.4162 43.4198 19.4148 43.4183 19.4134L41.9891 17.9659V15.9304C41.9891 14.0632 41.565 11.8497 39.8744 10.1499C38.1796 8.44606 35.9598 8.00913 34.0662 8.00913H32.0185L30.5903 6.59081C29.2614 5.25542 27.3908 3.99508 24.9918 4.00001C22.5981 4.00494 20.7344 5.26831 19.4148 6.58587L17.9815 8.00913H15.9338C14.0653 8.00913 11.8456 8.43004 10.1436 10.1264C8.439 11.8253 8.0109 14.0482 8.0109 15.9304V17.9754L6.58778 19.4072C5.26164 20.7343 3.99506 22.6044 4.00001 25.0064C4.00496 27.4039 5.27498 29.2642 6.58776 30.5779C6.58942 30.5795 6.59107 30.5812 6.59273 30.5829L8.0109 32.0097V34.0547C8.0109 35.9353 8.44174 38.1519 10.1395 39.849C11.8369 41.5456 14.0535 41.9759 15.9338 41.9759H17.9664L19.4097 43.4092Z" stroke="#944E1A" stroke-width="8"/>
</svg>
