<svg width="34" height="34" viewBox="0 0 34 34" fill="none" xmlns="http://www.w3.org/2000/svg">
<path d="M7.93384 29.9759H11.168C11.4824 29.9759 11.707 30.0657 11.9316 30.2902L14.2375 32.5801C16.124 34.4808 17.8759 34.4658 19.7626 32.5801L22.0684 30.2902C22.293 30.0657 22.5175 29.9759 22.832 29.9759H26.0662C28.7463 29.9759 29.9891 28.7487 29.9891 26.0547V22.8219C29.9891 22.5076 30.0789 22.2982 30.3036 22.0587L32.5794 19.7538C34.481 17.868 34.466 16.132 32.5794 14.2313L30.3036 11.9264C30.0789 11.7019 29.9891 11.4774 29.9891 11.1781V7.93035C29.9891 5.26632 28.7614 4.00913 26.0662 4.00913H22.832C22.5175 4.00913 22.293 3.93431 22.0684 3.70981L19.7626 1.41995C17.8759 -0.480791 16.124 -0.465825 14.2375 1.41995L11.9316 3.70981C11.707 3.93431 11.4824 4.00913 11.168 4.00913H7.93384C5.25367 4.00913 4.0109 5.23639 4.0109 7.93035V11.1781C4.0109 11.4774 3.93604 11.7019 3.71145 11.9264L1.42057 14.2313C-0.481003 16.132 -0.46603 17.868 1.42057 19.7538L3.71145 22.0587C3.93604 22.2982 4.0109 22.5076 4.0109 22.8219V26.0547C4.0109 28.7336 5.25367 29.9759 7.93384 29.9759ZM7.93384 27.5962C6.60124 27.5962 6.39162 27.3868 6.39162 26.0547V22.0287C6.39162 21.5798 6.25687 21.2355 5.92745 20.9062L3.09755 18.0925C2.15425 17.1347 2.15425 16.8653 3.09755 15.9075L5.92745 13.0937C6.25687 12.7645 6.39162 12.4203 6.39162 11.9563V7.93035C6.39162 6.58337 6.58627 6.38881 7.93384 6.38881H11.9616C12.4257 6.38881 12.7701 6.26908 13.0995 5.92484L15.9145 3.09619C16.8728 2.1533 17.1422 2.1533 18.0856 3.09619L20.9154 5.92484C21.2299 6.26908 21.5893 6.38881 22.0384 6.38881H26.0662C27.3988 6.38881 27.6084 6.59834 27.6084 7.93035V11.9563C27.6084 12.4203 27.7581 12.7645 28.0875 13.0937L30.9175 15.9075C31.8607 16.8653 31.8607 17.1347 30.9175 18.0925L28.0875 20.9062C27.7581 21.2355 27.6084 21.5798 27.6084 22.0287V26.0547C27.6084 27.3868 27.3988 27.5962 26.0662 27.5962H22.0384C21.5893 27.5962 21.2299 27.731 20.9154 28.0752L18.0856 30.9039C17.1422 31.8467 16.8728 31.8467 15.9145 30.9039L13.0995 28.0752C12.7701 27.731 12.4257 27.5962 11.9616 27.5962H7.93384Z" fill="#FF8A00"/>
</svg>
