<svg width="29" height="22" viewBox="0 0 29 22" fill="none" xmlns="http://www.w3.org/2000/svg">
<path d="M21.1824 12.3284C24.3848 13.0781 26.3769 14.2991 26.3769 15.5844C26.3769 17.6729 21.0432 19.6007 14.1243 19.6007C7.20531 19.6007 1.87154 17.6729 1.87154 15.5844C1.87154 14.3098 3.81012 13.1102 6.94826 12.3391L6.13428 10.8182C2.43919 11.7928 0.211426 13.4958 0.211426 15.5844C0.211426 18.9474 5.99503 21.2609 14.1243 21.2609C22.2641 21.2609 28.037 18.9474 28.037 15.5844C28.037 13.4423 25.6808 11.6964 21.8358 10.7433L21.1824 12.3284ZM22.1463 4.89536V7.13383C22.1463 11.7608 19.1902 14.9096 14.6169 14.9096H13.6209C9.03679 14.9096 6.10214 11.7821 6.10214 7.13383V4.89536H4.37777V7.13383C4.37777 12.7139 8.09428 16.634 13.6209 16.634H14.6169C20.1435 16.634 23.8707 12.7032 23.8707 7.13383V4.89536H22.1463ZM14.1243 9.30805C19.9292 9.30805 23.8707 7.51941 23.8707 4.89536C23.8707 2.2606 19.9399 0.47197 14.1243 0.47197C8.30849 0.47197 4.37777 2.2606 4.37777 4.89536C4.37777 7.51941 8.31919 9.30805 14.1243 9.30805ZM14.1243 7.58367C9.50807 7.58367 6.10214 6.41624 6.10214 4.89536C6.10214 3.37449 9.50807 2.19634 14.1243 2.19634C18.7404 2.19634 22.1463 3.37449 22.1463 4.89536C22.1463 6.41624 18.7404 7.58367 14.1243 7.58367ZM22.6711 11.7608H23.5494C26.0128 11.7608 27.4908 10.4648 27.4908 8.31197C27.4908 6.18061 26.0021 4.87395 23.5494 4.87395H22.8318V6.59831H23.5494C24.9417 6.59831 25.7664 7.24094 25.7664 8.31197C25.7664 9.38302 24.9417 10.0363 23.5494 10.0363H22.6711V11.7608Z" fill="#944E1A" fill-opacity="0.75"/>
</svg>
