<svg width="38" height="28" viewBox="0 0 38 28" fill="none" xmlns="http://www.w3.org/2000/svg">
<path d="M17.9792 20.8924H19.2644C26.4047 20.8924 31.2172 16.0799 31.2172 8.61115V5.71222C31.2172 2.31344 26.1333 0 18.6217 0C11.1103 0 6.02638 2.31344 6.02638 5.71222V8.61115C6.02638 15.8228 10.8246 20.8924 17.9792 20.8924ZM18.6217 9.19666C12.6525 9.19666 8.25415 7.68292 8.25415 5.71222C8.25415 3.75578 12.6525 2.22776 18.6217 2.22776C24.6053 2.22776 29.0038 3.75578 29.0038 5.71222C29.0038 7.68292 24.6053 9.19666 18.6217 9.19666ZM29.675 14.5804H30.803C33.9876 14.5804 35.9012 12.9096 35.9012 10.1392C35.9012 7.38303 33.9734 5.69793 30.803 5.69793H29.8891V7.91141H30.803C32.6167 7.91141 33.6735 8.73968 33.6735 10.1392C33.6735 11.5244 32.6167 12.3669 30.803 12.3669H29.675V14.5804ZM18.5505 27.7328C29.4036 27.7328 37.1008 24.6482 37.1008 20.1641C37.1008 18.4218 35.9156 16.8938 33.8305 15.6657C32.9737 16.0228 32.0313 16.2227 30.9601 16.2512C28.6896 20.207 24.5339 22.5633 19.2644 22.5633H17.9792C12.1099 22.5633 7.52584 19.4501 5.48372 14.5804C2.01355 15.9228 0 17.8649 0 20.1641C0 24.6482 7.71148 27.7328 18.5505 27.7328Z" fill="#064530"/>
</svg>
