<svg width="38" height="29" viewBox="0 0 38 29" fill="none" xmlns="http://www.w3.org/2000/svg">
<path d="M17.9909 21.7088H19.2762C26.4165 21.7088 31.229 16.8963 31.229 9.4275V6.52856C31.229 3.12979 26.1451 0.816345 18.6335 0.816345C11.122 0.816345 6.0381 3.12979 6.0381 6.52856V9.4275C6.0381 16.6391 10.8364 21.7088 17.9909 21.7088ZM18.6335 10.013C12.6643 10.013 8.26587 8.49926 8.26587 6.52856C8.26587 4.57213 12.6643 3.04411 18.6335 3.04411C24.6171 3.04411 29.0155 4.57213 29.0155 6.52856C29.0155 8.49926 24.6171 10.013 18.6335 10.013ZM29.6867 15.3968H30.8148C33.9993 15.3968 35.9129 13.7259 35.9129 10.9555C35.9129 8.19938 33.9851 6.51428 30.8148 6.51428H29.9008V8.72775H30.8148C32.6284 8.72775 33.6852 9.55603 33.6852 10.9555C33.6852 12.3407 32.6284 13.1833 30.8148 13.1833H29.6867V15.3968ZM18.5622 28.5492C29.4153 28.5492 37.1125 25.4645 37.1125 20.9804C37.1125 19.2382 35.9273 17.7102 33.8423 16.4821C32.9855 16.8391 32.043 17.0391 30.9718 17.0676C28.7013 21.0233 24.5456 23.3796 19.2762 23.3796H17.9909C12.1216 23.3796 7.53755 20.2664 5.49544 15.3968C2.02527 16.7392 0.0117188 18.6813 0.0117188 20.9804C0.0117188 25.4645 7.7232 28.5492 18.5622 28.5492Z" fill="#944E1A"/>
</svg>
