<svg width="29" height="22" viewBox="0 0 29 22" fill="none" xmlns="http://www.w3.org/2000/svg">
<path d="M21.2327 12.3284C24.4351 13.0781 26.4272 14.2991 26.4272 15.5844C26.4272 17.6729 21.0935 19.6007 14.1746 19.6007C7.2556 19.6007 1.92183 17.6729 1.92183 15.5844C1.92183 14.3098 3.86041 13.1102 6.99855 12.3391L6.18457 10.8182C2.48948 11.7928 0.261719 13.4958 0.261719 15.5844C0.261719 18.9474 6.04533 21.2609 14.1746 21.2609C22.3144 21.2609 28.0873 18.9474 28.0873 15.5844C28.0873 13.4423 25.731 11.6964 21.886 10.7433L21.2327 12.3284ZM22.1966 4.89536V7.13383C22.1966 11.7608 19.2405 14.9096 14.6672 14.9096H13.6712C9.08708 14.9096 6.15243 11.7821 6.15243 7.13383V4.89536H4.42806V7.13383C4.42806 12.7139 8.14457 16.634 13.6712 16.634H14.6672C20.1938 16.634 23.921 12.7032 23.921 7.13383V4.89536H22.1966ZM14.1746 9.30805C19.9795 9.30805 23.921 7.51941 23.921 4.89536C23.921 2.2606 19.9902 0.47197 14.1746 0.47197C8.35878 0.47197 4.42806 2.2606 4.42806 4.89536C4.42806 7.51941 8.36948 9.30805 14.1746 9.30805ZM14.1746 7.58367C9.55836 7.58367 6.15243 6.41624 6.15243 4.89536C6.15243 3.37449 9.55836 2.19634 14.1746 2.19634C18.7907 2.19634 22.1966 3.37449 22.1966 4.89536C22.1966 6.41624 18.7907 7.58367 14.1746 7.58367ZM22.7214 11.7608H23.5997C26.0631 11.7608 27.5411 10.4648 27.5411 8.31197C27.5411 6.18061 26.0524 4.87395 23.5997 4.87395H22.8821V6.59831H23.5997C24.992 6.59831 25.8167 7.24094 25.8167 8.31197C25.8167 9.38302 24.992 10.0363 23.5997 10.0363H22.7214V11.7608Z" fill="black" fill-opacity="0.5"/>
</svg>
