<svg width="218" height="218" viewBox="0 0 218 218" fill="none" xmlns="http://www.w3.org/2000/svg">
<path d="M127.302 169.328C130.294 168.023 131.539 166.114 132.438 164.99C140.513 154.904 123.284 124.966 98.686 107.644C72.6159 84.943 43.911 77.2081 35.8359 87.294C34.45 89.0251 33.3638 91.3829 32.9114 94.0445L17.5832 182.234C17.0511 192.985 21.1602 197.071 23.2164 199.067C26.9427 202.683 34.1888 205.759 41.7464 203.098C70.9121 191.867 98.2357 181.999 127.302 169.328Z" fill="url(#paint0_linear_161_1495)"/>
<path d="M127.302 169.328C130.294 168.023 131.539 166.114 132.438 164.99C140.513 154.904 123.284 124.966 98.686 107.644C72.6159 84.943 43.911 77.2081 35.8359 87.294C34.45 89.0251 33.3638 91.3829 32.9114 94.0445L17.5832 182.234C17.0511 192.985 21.1602 197.071 23.2164 199.067C26.9427 202.683 34.1888 205.759 41.7464 203.098C70.9121 191.867 98.2357 181.999 127.302 169.328Z" fill="url(#paint1_linear_161_1495)"/>
<path d="M127.302 169.328C130.294 168.023 131.539 166.114 132.438 164.99C140.513 154.904 123.284 124.966 98.686 107.644C72.6159 84.943 43.911 77.2081 35.8359 87.294C34.45 89.0251 33.3638 91.3829 32.9114 94.0445L17.5832 182.234C17.0511 192.985 21.1602 197.071 23.2164 199.067C26.9427 202.683 34.1888 205.759 41.7464 203.098C70.9121 191.867 98.2357 181.999 127.302 169.328Z" fill="url(#paint2_linear_161_1495)"/>
<path d="M127.302 169.328C130.294 168.023 131.539 166.114 132.438 164.99C140.513 154.904 123.284 124.966 98.686 107.644C72.6159 84.943 43.911 77.2081 35.8359 87.294C34.45 89.0251 33.3638 91.3829 32.9114 94.0445L17.5832 182.234C17.0511 192.985 21.1602 197.071 23.2164 199.067C26.9427 202.683 34.1888 205.759 41.7464 203.098C70.9121 191.867 98.2357 181.999 127.302 169.328Z" fill="url(#paint3_linear_161_1495)"/>
<path d="M68.6922 145.02C94.07 166.124 121.398 175.107 129.732 165.085C138.066 155.064 124.249 129.832 98.871 108.729C73.4932 87.6256 46.1647 78.6423 37.831 88.664C29.4974 98.6856 43.3144 123.917 68.6922 145.02Z" fill="url(#paint4_linear_161_1495)"/>
<path d="M72.8295 139.168C96.3495 158.727 121.102 167.745 128.115 159.311C135.128 150.877 121.747 128.185 98.2268 108.627C74.7069 89.0684 49.9548 80.0503 42.9415 88.4841C35.9282 96.918 49.3095 119.61 72.8295 139.168Z" fill="url(#paint5_linear_161_1495)"/>
<path d="M72.8295 139.168C96.3495 158.727 121.102 167.745 128.115 159.311C135.128 150.877 121.747 128.185 98.2268 108.627C74.7069 89.0684 49.9548 80.0503 42.9415 88.4841C35.9282 96.918 49.3095 119.61 72.8295 139.168Z" fill="url(#paint6_radial_161_1495)"/>
<path d="M72.8295 139.168C96.3495 158.727 121.102 167.745 128.115 159.311C135.128 150.877 121.747 128.185 98.2268 108.627C74.7069 89.0684 49.9548 80.0503 42.9415 88.4841C35.9282 96.918 49.3095 119.61 72.8295 139.168Z" fill="url(#paint7_radial_161_1495)"/>
<path d="M101.887 117.196C106.414 117.196 110.083 113.527 110.083 109C110.083 104.473 106.414 100.804 101.887 100.804C97.3605 100.804 93.6909 104.473 93.6909 109C93.6909 113.527 97.3605 117.196 101.887 117.196Z" fill="url(#paint8_radial_161_1495)"/>
<path d="M101.887 117.196C106.414 117.196 110.083 113.527 110.083 109C110.083 104.473 106.414 100.804 101.887 100.804C97.3605 100.804 93.6909 104.473 93.6909 109C93.6909 113.527 97.3605 117.196 101.887 117.196Z" fill="url(#paint9_radial_161_1495)"/>
<path d="M169.161 164.245C173.688 164.245 177.357 160.575 177.357 156.048C177.357 151.522 173.688 147.852 169.161 147.852C164.634 147.852 160.965 151.522 160.965 156.048C160.965 160.575 164.634 164.245 169.161 164.245Z" fill="url(#paint10_radial_161_1495)"/>
<path d="M169.161 164.245C173.688 164.245 177.357 160.575 177.357 156.048C177.357 151.522 173.688 147.852 169.161 147.852C164.634 147.852 160.965 151.522 160.965 156.048C160.965 160.575 164.634 164.245 169.161 164.245Z" fill="url(#paint11_radial_161_1495)"/>
<path d="M169.161 164.245C173.688 164.245 177.357 160.575 177.357 156.048C177.357 151.522 173.688 147.852 169.161 147.852C164.634 147.852 160.965 151.522 160.965 156.048C160.965 160.575 164.634 164.245 169.161 164.245Z" fill="url(#paint12_radial_161_1495)"/>
<path d="M162.295 55.9902C166.822 55.9902 170.492 52.3206 170.492 47.7939C170.492 43.2672 166.822 39.5977 162.295 39.5977C157.769 39.5977 154.099 43.2672 154.099 47.7939C154.099 52.3206 157.769 55.9902 162.295 55.9902Z" fill="url(#paint13_radial_161_1495)"/>
<path d="M162.295 55.9902C166.822 55.9902 170.492 52.3206 170.492 47.7939C170.492 43.2672 166.822 39.5977 162.295 39.5977C157.769 39.5977 154.099 43.2672 154.099 47.7939C154.099 52.3206 157.769 55.9902 162.295 55.9902Z" fill="url(#paint14_radial_161_1495)"/>
<path d="M68.0625 31.1352C72.5891 31.1352 76.2587 27.4657 76.2587 22.939C76.2587 18.4123 72.5891 14.7427 68.0625 14.7427C63.5358 14.7427 59.8662 18.4123 59.8662 22.939C59.8662 27.4657 63.5358 31.1352 68.0625 31.1352Z" fill="url(#paint15_radial_161_1495)"/>
<path d="M68.0625 31.1352C72.5891 31.1352 76.2587 27.4657 76.2587 22.939C76.2587 18.4123 72.5891 14.7427 68.0625 14.7427C63.5358 14.7427 59.8662 18.4123 59.8662 22.939C59.8662 27.4657 63.5358 31.1352 68.0625 31.1352Z" fill="url(#paint16_radial_161_1495)"/>
<path d="M68.0625 31.1352C72.5891 31.1352 76.2587 27.4657 76.2587 22.939C76.2587 18.4123 72.5891 14.7427 68.0625 14.7427C63.5358 14.7427 59.8662 18.4123 59.8662 22.939C59.8662 27.4657 63.5358 31.1352 68.0625 31.1352Z" fill="url(#paint17_radial_161_1495)"/>
<path d="M33.5742 63.4414C38.1009 63.4414 41.7704 59.7718 41.7704 55.2451C41.7704 50.7185 38.1009 47.0489 33.5742 47.0489C29.0475 47.0489 25.3779 50.7185 25.3779 55.2451C25.3779 59.7718 29.0475 63.4414 33.5742 63.4414Z" fill="url(#paint18_radial_161_1495)"/>
<path d="M33.5742 63.4414C38.1009 63.4414 41.7704 59.7718 41.7704 55.2451C41.7704 50.7185 38.1009 47.0489 33.5742 47.0489C29.0475 47.0489 25.3779 50.7185 25.3779 55.2451C25.3779 59.7718 29.0475 63.4414 33.5742 63.4414Z" fill="url(#paint19_radial_161_1495)"/>
<path d="M108.677 177.188C90.9236 175.954 78.4717 170.641 58.2981 153.973C40.9439 139.635 32.3279 126.915 29.4522 113.944L26.1206 133.112C27.4822 140.614 33.3367 151.099 44.9393 161.584C60.114 175.297 75.2229 185.002 90.1647 184.577C96.3137 182.175 102.472 179.727 108.677 177.188Z" fill="url(#paint20_radial_161_1495)"/>
<path d="M71.2376 191.86C62.7054 192.335 51.1663 185.374 39.1912 175.422C28.9725 166.587 23.9319 156.989 22.871 151.809L19.4878 171.274C20.3246 174.565 22.8733 179.038 30.2498 186.598C38.4983 195.053 46.7932 198.343 51.7192 199.279C55.2145 197.947 58.6886 196.628 62.1481 195.314C65.188 194.16 68.2162 193.01 71.2376 191.86Z" fill="url(#paint21_radial_161_1495)"/>
<path fill-rule="evenodd" clip-rule="evenodd" d="M190.09 89.303C165.58 84.5145 151.096 95.7435 146.505 100.779C143.844 103.699 139.319 103.908 136.4 101.247C133.48 98.585 133.271 94.0609 135.933 91.1417C143.051 83.3332 162.311 69.2995 192.833 75.2618C196.71 76.0193 199.24 79.7764 198.482 83.6541C197.724 87.5311 193.967 90.0606 190.09 89.303Z" fill="url(#paint22_radial_161_1495)"/>
<path fill-rule="evenodd" clip-rule="evenodd" d="M190.09 89.303C165.58 84.5145 151.096 95.7435 146.505 100.779C143.844 103.699 139.319 103.908 136.4 101.247C133.48 98.585 133.271 94.0609 135.933 91.1417C143.051 83.3332 162.311 69.2995 192.833 75.2618C196.71 76.0193 199.24 79.7764 198.482 83.6541C197.724 87.5311 193.967 90.0606 190.09 89.303Z" fill="url(#paint23_radial_161_1495)"/>
<path fill-rule="evenodd" clip-rule="evenodd" d="M130.146 14.1856C133.716 14.3526 136.475 17.3823 136.308 20.9527C136.079 25.8685 135.184 34.0576 133.049 42.8049C131.264 50.1164 128.516 58.226 124.284 65.1786C125.308 70.6027 125.335 77.003 124.212 84.2808C123.667 87.8131 120.361 90.235 116.828 89.69C113.296 89.1443 110.874 85.8389 111.419 82.3066C111.67 80.6777 111.849 79.1531 111.963 77.7258C110.707 78.3812 109.421 78.8949 108.107 79.2614C102.977 80.6947 98.0563 79.7015 94.2072 77.1372C86.894 72.2663 83.5225 61.606 89.183 52.8909C94.5676 44.6003 105.79 42.3462 114.324 48.2448C115.308 48.9249 116.231 49.6913 117.092 50.5416C118.454 47.0984 119.574 43.4244 120.474 39.7351C122.39 31.8886 123.184 24.5334 123.379 20.3482C123.546 16.7778 126.575 14.0187 130.146 14.1856ZM110.069 62.8302C109.086 60.7843 107.919 59.5529 106.964 58.8925C104.294 57.0472 101.36 57.9066 100.038 59.9412C98.621 62.1229 99.3704 65.0243 101.383 66.365C102.197 66.907 103.24 67.1821 104.624 66.7952C105.877 66.4452 107.794 65.4286 110.069 62.8302Z" fill="url(#paint24_linear_161_1495)"/>
<path fill-rule="evenodd" clip-rule="evenodd" d="M130.146 14.1856C133.716 14.3526 136.475 17.3823 136.308 20.9527C136.079 25.8685 135.184 34.0576 133.049 42.8049C131.264 50.1164 128.516 58.226 124.284 65.1786C125.308 70.6027 125.335 77.003 124.212 84.2808C123.667 87.8131 120.361 90.235 116.828 89.69C113.296 89.1443 110.874 85.8389 111.419 82.3066C111.67 80.6777 111.849 79.1531 111.963 77.7258C110.707 78.3812 109.421 78.8949 108.107 79.2614C102.977 80.6947 98.0563 79.7015 94.2072 77.1372C86.894 72.2663 83.5225 61.606 89.183 52.8909C94.5676 44.6003 105.79 42.3462 114.324 48.2448C115.308 48.9249 116.231 49.6913 117.092 50.5416C118.454 47.0984 119.574 43.4244 120.474 39.7351C122.39 31.8886 123.184 24.5334 123.379 20.3482C123.546 16.7778 126.575 14.0187 130.146 14.1856ZM110.069 62.8302C109.086 60.7843 107.919 59.5529 106.964 58.8925C104.294 57.0472 101.36 57.9066 100.038 59.9412C98.621 62.1229 99.3704 65.0243 101.383 66.365C102.197 66.907 103.24 67.1821 104.624 66.7952C105.877 66.4452 107.794 65.4286 110.069 62.8302Z" fill="url(#paint25_radial_161_1495)"/>
<path fill-rule="evenodd" clip-rule="evenodd" d="M130.146 14.1856C133.716 14.3526 136.475 17.3823 136.308 20.9527C136.079 25.8685 135.184 34.0576 133.049 42.8049C131.264 50.1164 128.516 58.226 124.284 65.1786C125.308 70.6027 125.335 77.003 124.212 84.2808C123.667 87.8131 120.361 90.235 116.828 89.69C113.296 89.1443 110.874 85.8389 111.419 82.3066C111.67 80.6777 111.849 79.1531 111.963 77.7258C110.707 78.3812 109.421 78.8949 108.107 79.2614C102.977 80.6947 98.0563 79.7015 94.2072 77.1372C86.894 72.2663 83.5225 61.606 89.183 52.8909C94.5676 44.6003 105.79 42.3462 114.324 48.2448C115.308 48.9249 116.231 49.6913 117.092 50.5416C118.454 47.0984 119.574 43.4244 120.474 39.7351C122.39 31.8886 123.184 24.5334 123.379 20.3482C123.546 16.7778 126.575 14.0187 130.146 14.1856ZM110.069 62.8302C109.086 60.7843 107.919 59.5529 106.964 58.8925C104.294 57.0472 101.36 57.9066 100.038 59.9412C98.621 62.1229 99.3704 65.0243 101.383 66.365C102.197 66.907 103.24 67.1821 104.624 66.7952C105.877 66.4452 107.794 65.4286 110.069 62.8302Z" fill="url(#paint26_radial_161_1495)"/>
<path fill-rule="evenodd" clip-rule="evenodd" d="M130.146 14.1856C133.716 14.3526 136.475 17.3823 136.308 20.9527C136.079 25.8685 135.184 34.0576 133.049 42.8049C131.264 50.1164 128.516 58.226 124.284 65.1786C125.308 70.6027 125.335 77.003 124.212 84.2808C123.667 87.8131 120.361 90.235 116.828 89.69C113.296 89.1443 110.874 85.8389 111.419 82.3066C111.67 80.6777 111.849 79.1531 111.963 77.7258C110.707 78.3812 109.421 78.8949 108.107 79.2614C102.977 80.6947 98.0563 79.7015 94.2072 77.1372C86.894 72.2663 83.5225 61.606 89.183 52.8909C94.5676 44.6003 105.79 42.3462 114.324 48.2448C115.308 48.9249 116.231 49.6913 117.092 50.5416C118.454 47.0984 119.574 43.4244 120.474 39.7351C122.39 31.8886 123.184 24.5334 123.379 20.3482C123.546 16.7778 126.575 14.0187 130.146 14.1856ZM110.069 62.8302C109.086 60.7843 107.919 59.5529 106.964 58.8925C104.294 57.0472 101.36 57.9066 100.038 59.9412C98.621 62.1229 99.3704 65.0243 101.383 66.365C102.197 66.907 103.24 67.1821 104.624 66.7952C105.877 66.4452 107.794 65.4286 110.069 62.8302Z" fill="url(#paint27_radial_161_1495)"/>
<path fill-rule="evenodd" clip-rule="evenodd" d="M94.2957 154.005C89.6346 151.428 84.776 148.306 79.8887 144.702C87.2898 135.529 100.51 123.497 117.747 114.808C146.069 100.532 177.298 108.281 190.022 113.325C194.395 115.058 196.534 120.008 194.801 124.38C193.067 128.751 188.118 130.891 183.746 129.157C172.84 124.834 147.336 118.966 125.413 130.017C110.954 137.305 100.202 147.105 94.2957 154.005Z" fill="url(#paint28_linear_161_1495)"/>
<path fill-rule="evenodd" clip-rule="evenodd" d="M94.2957 154.005C89.6346 151.428 84.776 148.306 79.8887 144.702C87.2898 135.529 100.51 123.497 117.747 114.808C146.069 100.532 177.298 108.281 190.022 113.325C194.395 115.058 196.534 120.008 194.801 124.38C193.067 128.751 188.118 130.891 183.746 129.157C172.84 124.834 147.336 118.966 125.413 130.017C110.954 137.305 100.202 147.105 94.2957 154.005Z" fill="url(#paint29_radial_161_1495)"/>
<path fill-rule="evenodd" clip-rule="evenodd" d="M94.2957 154.005C89.6346 151.428 84.776 148.306 79.8887 144.702C87.2898 135.529 100.51 123.497 117.747 114.808C146.069 100.532 177.298 108.281 190.022 113.325C194.395 115.058 196.534 120.008 194.801 124.38C193.067 128.751 188.118 130.891 183.746 129.157C172.84 124.834 147.336 118.966 125.413 130.017C110.954 137.305 100.202 147.105 94.2957 154.005Z" fill="url(#paint30_radial_161_1495)"/>
<path fill-rule="evenodd" clip-rule="evenodd" d="M94.2957 154.005C89.6346 151.428 84.776 148.306 79.8887 144.702C87.2898 135.529 100.51 123.497 117.747 114.808C146.069 100.532 177.298 108.281 190.022 113.325C194.395 115.058 196.534 120.008 194.801 124.38C193.067 128.751 188.118 130.891 183.746 129.157C172.84 124.834 147.336 118.966 125.413 130.017C110.954 137.305 100.202 147.105 94.2957 154.005Z" fill="url(#paint31_radial_161_1495)"/>
<path fill-rule="evenodd" clip-rule="evenodd" d="M69.4322 45.3259C67.1457 41.2163 61.9604 39.7386 57.8508 42.0254C53.7411 44.3122 52.2634 49.4976 54.5502 53.6073C58.0035 59.8131 62.2554 68.5739 62.7996 79.8547C63.2738 89.6859 60.9589 102.154 51.5469 117.111C54.8035 121.421 58.736 125.887 63.2345 130.323C76.5043 111.02 80.5202 93.7311 79.811 79.0338C79.078 63.8363 73.3242 52.3193 69.4322 45.3259Z" fill="url(#paint32_radial_161_1495)"/>
<path fill-rule="evenodd" clip-rule="evenodd" d="M69.4322 45.3259C67.1457 41.2163 61.9604 39.7386 57.8508 42.0254C53.7411 44.3122 52.2634 49.4976 54.5502 53.6073C58.0035 59.8131 62.2554 68.5739 62.7996 79.8547C63.2738 89.6859 60.9589 102.154 51.5469 117.111C54.8035 121.421 58.736 125.887 63.2345 130.323C76.5043 111.02 80.5202 93.7311 79.811 79.0338C79.078 63.8363 73.3242 52.3193 69.4322 45.3259Z" fill="url(#paint33_radial_161_1495)"/>
<path d="M87.5752 55.9409C87.9935 54.9066 88.5221 53.8861 89.1686 52.891C94.5532 44.6004 105.775 42.3464 114.309 48.2449C115.293 48.925 116.217 49.6913 117.078 50.5417C117.357 49.8381 117.624 49.125 117.883 48.404C117.896 48.4476 117.908 48.491 117.92 48.5342C116.167 54.056 112.234 59.9671 110.049 62.8188C109.067 60.7798 107.903 59.5518 106.949 58.8926C104.279 57.0473 101.345 57.9067 100.024 59.9413C99.9719 60.0204 99.9235 60.1006 99.8779 60.1816L87.5752 55.9409Z" fill="url(#paint34_radial_161_1495)"/>
<path d="M87.5752 55.9409C87.9935 54.9066 88.5221 53.8861 89.1686 52.891C94.5532 44.6004 105.775 42.3464 114.309 48.2449C115.293 48.925 116.217 49.6913 117.078 50.5417C117.357 49.8381 117.624 49.125 117.883 48.404C117.896 48.4476 117.908 48.491 117.92 48.5342C116.167 54.056 112.234 59.9671 110.049 62.8188C109.067 60.7798 107.903 59.5518 106.949 58.8926C104.279 57.0473 101.345 57.9067 100.024 59.9413C99.9719 60.0204 99.9235 60.1006 99.8779 60.1816L87.5752 55.9409Z" fill="url(#paint35_radial_161_1495)"/>
<path d="M124.271 65.1844C125.293 70.6075 125.32 77.0058 124.197 84.2808C123.652 87.8131 120.347 90.235 116.814 89.6893C113.282 89.1443 110.86 85.8389 111.405 82.3066C111.656 80.6811 111.834 79.1585 111.948 77.734C118.638 73.5341 123.055 67.9454 124.271 65.1844Z" fill="#064530"/>
<path d="M124.271 65.1844C125.293 70.6075 125.32 77.0058 124.197 84.2808C123.652 87.8131 120.347 90.235 116.814 89.6893C113.282 89.1443 110.86 85.8389 111.405 82.3066C111.656 80.6811 111.834 79.1585 111.948 77.734C118.638 73.5341 123.055 67.9454 124.271 65.1844Z" fill="url(#paint36_radial_161_1495)"/>
<path d="M132.65 20.5439C132.082 30.8337 127.626 55.1174 114.342 69.9344" stroke="url(#paint37_linear_161_1495)" stroke-width="0.3" stroke-linecap="round"/>
<defs>
<linearGradient id="paint0_linear_161_1495" x1="28.76" y1="136.144" x2="83.6856" y2="183.831" gradientUnits="userSpaceOnUse">
<stop stop-color="#B3843C"/>
<stop offset="1" stop-color="#F17A61"/>
</linearGradient>
<linearGradient id="paint1_linear_161_1495" x1="22.6907" y1="143.524" x2="38.7659" y2="146.788" gradientUnits="userSpaceOnUse">
<stop stop-color="#B1853B"/>
<stop offset="1" stop-color="#B1853B" stop-opacity="0"/>
</linearGradient>
<linearGradient id="paint2_linear_161_1495" x1="134.45" y1="162.329" x2="107.317" y2="166.8" gradientUnits="userSpaceOnUse">
<stop stop-color="#F9C26C"/>
<stop offset="1" stop-color="#F9C26C" stop-opacity="0"/>
</linearGradient>
<linearGradient id="paint3_linear_161_1495" x1="75.9936" y1="84.411" x2="58.5647" y2="114.003" gradientUnits="userSpaceOnUse">
<stop stop-color="#E6BF69"/>
<stop offset="1" stop-color="#E6BF69" stop-opacity="0"/>
</linearGradient>
<linearGradient id="paint4_linear_161_1495" x1="70.0611" y1="143.64" x2="105.421" y2="112.081" gradientUnits="userSpaceOnUse">
<stop stop-color="#FCCB57"/>
<stop offset="1" stop-color="#F5BD55"/>
</linearGradient>
<linearGradient id="paint5_linear_161_1495" x1="48.1327" y1="89.9462" x2="130.947" y2="165.948" gradientUnits="userSpaceOnUse">
<stop stop-color="#F3AB2C"/>
<stop offset="1" stop-color="#B57F1E"/>
</linearGradient>
<radialGradient id="paint6_radial_161_1495" cx="0" cy="0" r="1" gradientUnits="userSpaceOnUse" gradientTransform="translate(53.8808 118.26) rotate(-69.3794) scale(44.128 12.3597)">
<stop offset="0.423414" stop-color="#CA851E"/>
<stop offset="1" stop-color="#CA851E" stop-opacity="0"/>
</radialGradient>
<radialGradient id="paint7_radial_161_1495" cx="0" cy="0" r="1" gradientUnits="userSpaceOnUse" gradientTransform="translate(89.0073 148.278) rotate(-33.3516) scale(44.3462 25.9696)">
<stop stop-color="#BC7F28"/>
<stop offset="1" stop-color="#BC7F28" stop-opacity="0"/>
</radialGradient>
<radialGradient id="paint8_radial_161_1495" cx="0" cy="0" r="1" gradientUnits="userSpaceOnUse" gradientTransform="translate(105.507 106.765) rotate(138.668) scale(11.7659)">
<stop stop-color="#7DFF6F"/>
<stop offset="1" stop-color="#064530"/>
</radialGradient>
<radialGradient id="paint9_radial_161_1495" cx="0" cy="0" r="1" gradientUnits="userSpaceOnUse" gradientTransform="translate(103.5 107.87) rotate(160.051) scale(11.8155 12.9513)">
<stop offset="0.534713" stop-color="#064530" stop-opacity="0"/>
<stop offset="1" stop-color="#064530"/>
</radialGradient>
<radialGradient id="paint10_radial_161_1495" cx="0" cy="0" r="1" gradientUnits="userSpaceOnUse" gradientTransform="translate(173.91 152.585) rotate(134.569) scale(13.4719)">
<stop stop-color="#FDD46C"/>
<stop offset="1" stop-color="#F09C53"/>
</radialGradient>
<radialGradient id="paint11_radial_161_1495" cx="0" cy="0" r="1" gradientUnits="userSpaceOnUse" gradientTransform="translate(170.687 151.869) rotate(100.827) scale(13.3445)">
<stop offset="0.792052" stop-color="#E76260" stop-opacity="0"/>
<stop offset="0.964251" stop-color="#E76260"/>
</radialGradient>
<radialGradient id="paint12_radial_161_1495" cx="0" cy="0" r="1" gradientUnits="userSpaceOnUse" gradientTransform="translate(173.071 157.401) rotate(-147.558) scale(13.514 15.9146)">
<stop offset="0.482355" stop-color="#AA885A" stop-opacity="0"/>
<stop offset="0.90682" stop-color="#AA885A"/>
</radialGradient>
<radialGradient id="paint13_radial_161_1495" cx="0" cy="0" r="1" gradientUnits="userSpaceOnUse" gradientTransform="translate(168.165 44.6046) rotate(132.387) scale(14.0346 14.0346)">
<stop stop-color="#FF46AA"/>
<stop offset="1" stop-color="#E3189D"/>
</radialGradient>
<radialGradient id="paint14_radial_161_1495" cx="0" cy="0" r="1" gradientUnits="userSpaceOnUse" gradientTransform="translate(165.755 49.2841) rotate(-173.29) scale(12.7544 17.0693)">
<stop offset="0.522105" stop-color="#B63173" stop-opacity="0"/>
<stop offset="1" stop-color="#B63173"/>
</radialGradient>
<radialGradient id="paint15_radial_161_1495" cx="0" cy="0" r="1" gradientUnits="userSpaceOnUse" gradientTransform="translate(73.4332 19.6582) rotate(139.574) scale(12.543)">
<stop stop-color="#FFF46F"/>
<stop offset="1" stop-color="#EFB93C"/>
</radialGradient>
<radialGradient id="paint16_radial_161_1495" cx="0" cy="0" r="1" gradientUnits="userSpaceOnUse" gradientTransform="translate(71.6388 21.6117) rotate(-178.519) scale(13.0435 12.419)">
<stop offset="0.558644" stop-color="#AA904B" stop-opacity="0"/>
<stop offset="0.943632" stop-color="#AA904B"/>
</radialGradient>
<radialGradient id="paint17_radial_161_1495" cx="0" cy="0" r="1" gradientUnits="userSpaceOnUse" gradientTransform="translate(70.1666 18.3086) rotate(102.339) scale(13.9472 13.9472)">
<stop offset="0.771901" stop-color="#C47072" stop-opacity="0"/>
<stop offset="1" stop-color="#C47072"/>
</radialGradient>
<radialGradient id="paint18_radial_161_1495" cx="0" cy="0" r="1" gradientUnits="userSpaceOnUse" gradientTransform="translate(39.4437 52.0557) rotate(132.387) scale(14.0346)">
<stop stop-color="#FF46AA"/>
<stop offset="1" stop-color="#E3189D"/>
</radialGradient>
<radialGradient id="paint19_radial_161_1495" cx="0" cy="0" r="1" gradientUnits="userSpaceOnUse" gradientTransform="translate(37.0337 56.7353) rotate(-173.29) scale(12.7544 17.0693)">
<stop offset="0.522105" stop-color="#B63173" stop-opacity="0"/>
<stop offset="1" stop-color="#B63173"/>
</radialGradient>
<radialGradient id="paint20_radial_161_1495" cx="0" cy="0" r="1" gradientUnits="userSpaceOnUse" gradientTransform="translate(76.4471 170.845) rotate(133.21) scale(28.9171 63.312)">
<stop stop-color="#3365FF"/>
<stop offset="1" stop-color="#356DB9"/>
</radialGradient>
<radialGradient id="paint21_radial_161_1495" cx="0" cy="0" r="1" gradientUnits="userSpaceOnUse" gradientTransform="translate(50.4745 190.856) rotate(131.598) scale(17.8499 45.1528)">
<stop stop-color="#3365FF"/>
<stop offset="1" stop-color="#356DB9"/>
</radialGradient>
<radialGradient id="paint22_radial_161_1495" cx="0" cy="0" r="1" gradientUnits="userSpaceOnUse" gradientTransform="translate(187.576 81.0054) rotate(168.283) scale(29.3519 10.9505)">
<stop stop-color="#FFA235"/>
<stop offset="1" stop-color="#C07216"/>
</radialGradient>
<radialGradient id="paint23_radial_161_1495" cx="0" cy="0" r="1" gradientUnits="userSpaceOnUse" gradientTransform="translate(166.341 104.423) rotate(-127.355) scale(30.2639 53.9364)">
<stop offset="0.752144" stop-color="#944E1A" stop-opacity="0"/>
<stop offset="1" stop-color="#944E1A"/>
</radialGradient>
<linearGradient id="paint24_linear_161_1495" x1="129.862" y1="14.1784" x2="99.3289" y2="87.356" gradientUnits="userSpaceOnUse">
<stop stop-color="#89DC80"/>
<stop offset="1" stop-color="#064530"/>
</linearGradient>
<radialGradient id="paint25_radial_161_1495" cx="0" cy="0" r="1" gradientUnits="userSpaceOnUse" gradientTransform="translate(123.16 37.95) rotate(128.217) scale(52.8694 32.3389)">
<stop offset="0.80204" stop-color="#064530" stop-opacity="0"/>
<stop offset="0.950917" stop-color="#032016"/>
</radialGradient>
<radialGradient id="paint26_radial_161_1495" cx="0" cy="0" r="1" gradientUnits="userSpaceOnUse" gradientTransform="translate(120.515 31.8272) rotate(12.0948) scale(7.62033 25.582)">
<stop stop-color="#51C644"/>
<stop offset="1" stop-color="#89DC80" stop-opacity="0"/>
</radialGradient>
<radialGradient id="paint27_radial_161_1495" cx="0" cy="0" r="1" gradientUnits="userSpaceOnUse" gradientTransform="translate(135.631 15.3281) rotate(141.953) scale(9.32658 8.38523)">
<stop stop-color="#9AFF8F"/>
<stop offset="1" stop-color="white" stop-opacity="0"/>
</radialGradient>
<linearGradient id="paint28_linear_161_1495" x1="98.4425" y1="147.796" x2="189.793" y2="123.857" gradientUnits="userSpaceOnUse">
<stop stop-color="#064530"/>
<stop offset="1" stop-color="#89DC80"/>
</linearGradient>
<radialGradient id="paint29_radial_161_1495" cx="0" cy="0" r="1" gradientUnits="userSpaceOnUse" gradientTransform="translate(132.233 162.734) rotate(-129.838) scale(54.3639 136.275)">
<stop offset="0.622552" stop-color="#526579" stop-opacity="0"/>
<stop offset="0.962126" stop-color="#526579"/>
</radialGradient>
<radialGradient id="paint30_radial_161_1495" cx="0" cy="0" r="1" gradientUnits="userSpaceOnUse" gradientTransform="translate(162.765 133.394) rotate(94.3987) scale(18.6608 37.5177)">
<stop offset="0.396078" stop-color="#3D9E7B"/>
<stop offset="1" stop-color="#538E4D" stop-opacity="0"/>
</radialGradient>
<radialGradient id="paint31_radial_161_1495" cx="0" cy="0" r="1" gradientUnits="userSpaceOnUse" gradientTransform="translate(190.436 117.71) rotate(-68.8186) scale(5.11639 4.03487)">
<stop stop-color="#A1FA97"/>
<stop offset="1" stop-color="#9EFF94" stop-opacity="0"/>
</radialGradient>
<radialGradient id="paint32_radial_161_1495" cx="0" cy="0" r="1" gradientUnits="userSpaceOnUse" gradientTransform="translate(73.8733 43.8469) rotate(99.4229) scale(49.8119 18.6615)">
<stop stop-color="#F3AB2C"/>
<stop offset="1" stop-color="#BF6D0C"/>
</radialGradient>
<radialGradient id="paint33_radial_161_1495" cx="0" cy="0" r="1" gradientUnits="userSpaceOnUse" gradientTransform="translate(47.8661 95.2122) rotate(31.1757) scale(32.7576 102.803)">
<stop offset="0.803698" stop-color="#944E1A" stop-opacity="0"/>
<stop offset="1" stop-color="#944E1A"/>
</radialGradient>
<radialGradient id="paint34_radial_161_1495" cx="0" cy="0" r="1" gradientUnits="userSpaceOnUse" gradientTransform="translate(111.857 64.8523) rotate(-119.23) scale(18.6549 13.9447)">
<stop stop-color="#053525"/>
<stop offset="1" stop-color="#064530" stop-opacity="0"/>
</radialGradient>
<radialGradient id="paint35_radial_161_1495" cx="0" cy="0" r="1" gradientUnits="userSpaceOnUse" gradientTransform="translate(117.92 50.7738) rotate(-127.657) scale(12.6379 5.12033)">
<stop stop-color="#72B76B"/>
<stop offset="1" stop-color="#4C7049" stop-opacity="0"/>
</radialGradient>
<radialGradient id="paint36_radial_161_1495" cx="0" cy="0" r="1" gradientUnits="userSpaceOnUse" gradientTransform="translate(123.602 64.6123) rotate(94.8498) scale(17.6266 9.81)">
<stop stop-color="#89DC80"/>
<stop offset="1" stop-color="#89DC80" stop-opacity="0"/>
</radialGradient>
<linearGradient id="paint37_linear_161_1495" x1="131.16" y1="13.3056" x2="104.549" y2="74.618" gradientUnits="userSpaceOnUse">
<stop stop-color="#C1FFBA"/>
<stop offset="1" stop-color="#1B7A5A"/>
</linearGradient>
</defs>
</svg>
