<svg width="168" height="168" viewBox="0 0 168 168" fill="none" xmlns="http://www.w3.org/2000/svg">
<path d="M69.8957 130.491C67.5899 129.486 66.6307 128.014 65.9377 127.148C59.7149 119.376 72.9922 96.3044 91.9483 82.9547C112.039 65.4607 134.16 59.4998 140.383 67.2724C141.451 68.6065 142.288 70.4235 142.637 72.4747L154.45 140.438C154.86 148.723 151.693 151.871 150.108 153.409C147.237 156.196 141.653 158.566 135.828 156.516C113.352 147.861 92.2954 140.256 69.8957 130.491Z" fill="url(#paint0_linear_161_1441)"/>
<path d="M69.8957 130.491C67.5899 129.486 66.6307 128.014 65.9377 127.148C59.7149 119.376 72.9922 96.3044 91.9483 82.9547C112.039 65.4607 134.16 59.4998 140.383 67.2724C141.451 68.6065 142.288 70.4235 142.637 72.4747L154.45 140.438C154.86 148.723 151.693 151.871 150.108 153.409C147.237 156.196 141.653 158.566 135.828 156.516C113.352 147.861 92.2954 140.256 69.8957 130.491Z" fill="url(#paint1_linear_161_1441)"/>
<path d="M69.8957 130.491C67.5899 129.486 66.6307 128.014 65.9377 127.148C59.7149 119.376 72.9922 96.3044 91.9483 82.9547C112.039 65.4607 134.16 59.4998 140.383 67.2724C141.451 68.6065 142.288 70.4235 142.637 72.4747L154.45 140.438C154.86 148.723 151.693 151.871 150.108 153.409C147.237 156.196 141.653 158.566 135.828 156.516C113.352 147.861 92.2954 140.256 69.8957 130.491Z" fill="url(#paint2_linear_161_1441)"/>
<path d="M69.8957 130.491C67.5899 129.486 66.6307 128.014 65.9377 127.148C59.7149 119.376 72.9922 96.3044 91.9483 82.9547C112.039 65.4607 134.16 59.4998 140.383 67.2724C141.451 68.6065 142.288 70.4235 142.637 72.4747L154.45 140.438C154.86 148.723 151.693 151.871 150.108 153.409C147.237 156.196 141.653 158.566 135.828 156.516C113.352 147.861 92.2954 140.256 69.8957 130.491Z" fill="url(#paint3_linear_161_1441)"/>
<path d="M115.063 111.759C95.5062 128.022 74.4457 134.945 68.0234 127.222C61.6012 119.499 72.2492 100.054 91.8063 83.791C111.364 67.528 132.424 60.6051 138.846 68.3282C145.269 76.0513 134.621 95.4959 115.063 111.759Z" fill="url(#paint4_linear_161_1441)"/>
<path d="M111.874 107.249C93.7487 122.322 74.6737 129.271 69.269 122.772C63.8643 116.272 74.1765 98.7848 92.302 83.7123C110.427 68.6399 129.502 61.6901 134.907 68.1896C140.312 74.6891 130 92.1766 111.874 107.249Z" fill="url(#paint5_linear_161_1441)"/>
<path d="M111.874 107.249C93.7487 122.322 74.6737 129.271 69.269 122.772C63.8643 116.272 74.1765 98.7848 92.302 83.7123C110.427 68.6399 129.502 61.6901 134.907 68.1896C140.312 74.6891 130 92.1766 111.874 107.249Z" fill="url(#paint6_radial_161_1441)"/>
<path d="M111.874 107.249C93.7487 122.322 74.6737 129.271 69.269 122.772C63.8643 116.272 74.1765 98.7848 92.302 83.7123C110.427 68.6399 129.502 61.6901 134.907 68.1896C140.312 74.6891 130 92.1766 111.874 107.249Z" fill="url(#paint7_radial_161_1441)"/>
<path d="M89.4815 90.3164C85.993 90.3164 83.1651 87.4884 83.1651 84C83.1651 80.5116 85.993 77.6836 89.4815 77.6836C92.9699 77.6836 95.7979 80.5116 95.7979 84C95.7979 87.4884 92.9699 90.3164 89.4815 90.3164Z" fill="url(#paint8_radial_161_1441)"/>
<path d="M89.4815 90.3164C85.993 90.3164 83.1651 87.4884 83.1651 84C83.1651 80.5116 85.993 77.6836 89.4815 77.6836C92.9699 77.6836 95.7979 80.5116 95.7979 84C95.7979 87.4884 92.9699 90.3164 89.4815 90.3164Z" fill="url(#paint9_radial_161_1441)"/>
<path d="M37.6372 126.574C34.1488 126.574 31.3209 123.746 31.3209 120.258C31.3209 116.769 34.1488 113.941 37.6372 113.941C41.1257 113.941 43.9536 116.769 43.9536 120.258C43.9536 123.746 41.1257 126.574 37.6372 126.574Z" fill="url(#paint10_radial_161_1441)"/>
<path d="M37.6372 126.574C34.1488 126.574 31.3209 123.746 31.3209 120.258C31.3209 116.769 34.1488 113.941 37.6372 113.941C41.1257 113.941 43.9536 116.769 43.9536 120.258C43.9536 123.746 41.1257 126.574 37.6372 126.574Z" fill="url(#paint11_radial_161_1441)"/>
<path d="M37.6372 126.574C34.1488 126.574 31.3209 123.746 31.3209 120.258C31.3209 116.769 34.1488 113.941 37.6372 113.941C41.1257 113.941 43.9536 116.769 43.9536 120.258C43.9536 123.746 41.1257 126.574 37.6372 126.574Z" fill="url(#paint12_radial_161_1441)"/>
<path d="M42.9283 43.1484C39.4398 43.1484 36.6119 40.3204 36.6119 36.832C36.6119 33.3436 39.4398 30.5156 42.9283 30.5156C46.4167 30.5156 49.2446 33.3436 49.2446 36.832C49.2446 40.3204 46.4167 43.1484 42.9283 43.1484Z" fill="url(#paint13_radial_161_1441)"/>
<path d="M42.9283 43.1484C39.4398 43.1484 36.6119 40.3204 36.6119 36.832C36.6119 33.3436 39.4398 30.5156 42.9283 30.5156C46.4167 30.5156 49.2446 33.3436 49.2446 36.832C49.2446 40.3204 46.4167 43.1484 42.9283 43.1484Z" fill="url(#paint14_radial_161_1441)"/>
<path d="M115.548 23.9941C112.059 23.9941 109.231 21.1662 109.231 17.6777C109.231 14.1893 112.059 11.3614 115.548 11.3614C119.036 11.3614 121.864 14.1893 121.864 17.6777C121.864 21.1662 119.036 23.9941 115.548 23.9941Z" fill="url(#paint15_radial_161_1441)"/>
<path d="M115.548 23.9941C112.059 23.9941 109.231 21.1662 109.231 17.6777C109.231 14.1893 112.059 11.3614 115.548 11.3614C119.036 11.3614 121.864 14.1893 121.864 17.6777C121.864 21.1662 119.036 23.9941 115.548 23.9941Z" fill="url(#paint16_radial_161_1441)"/>
<path d="M115.548 23.9941C112.059 23.9941 109.231 21.1662 109.231 17.6777C109.231 14.1893 112.059 11.3614 115.548 11.3614C119.036 11.3614 121.864 14.1893 121.864 17.6777C121.864 21.1662 119.036 23.9941 115.548 23.9941Z" fill="url(#paint17_radial_161_1441)"/>
<path d="M142.126 48.8906C138.638 48.8906 135.81 46.0627 135.81 42.5742C135.81 39.0858 138.638 36.2579 142.126 36.2579C145.614 36.2579 148.442 39.0858 148.442 42.5742C148.442 46.0627 145.614 48.8906 142.126 48.8906Z" fill="url(#paint18_radial_161_1441)"/>
<path d="M142.126 48.8906C138.638 48.8906 135.81 46.0627 135.81 42.5742C135.81 39.0858 138.638 36.2579 142.126 36.2579C145.614 36.2579 148.442 39.0858 148.442 42.5742C148.442 46.0627 145.614 48.8906 142.126 48.8906Z" fill="url(#paint19_radial_161_1441)"/>
<path d="M84.2487 136.548C97.9302 135.598 107.526 131.503 123.073 118.658C136.447 107.609 143.087 97.8059 145.303 87.8099L147.87 102.582C146.821 108.363 142.309 116.443 133.368 124.523C121.673 135.091 110.03 142.57 98.515 142.242C93.7764 140.392 89.0304 138.505 84.2487 136.548Z" fill="url(#paint20_radial_161_1441)"/>
<path d="M113.101 147.855C119.677 148.222 128.569 142.857 137.798 135.188C145.673 128.379 149.557 120.982 150.375 116.99L152.982 131.991C152.337 134.527 150.373 137.974 144.688 143.801C138.332 150.316 131.939 152.852 128.143 153.573C125.449 152.546 122.772 151.53 120.106 150.518C117.763 149.628 115.43 148.742 113.101 147.855Z" fill="url(#paint21_radial_161_1441)"/>
<path fill-rule="evenodd" clip-rule="evenodd" d="M21.5089 68.8207C40.3973 65.1304 51.5588 73.784 55.0968 77.6648C57.148 79.915 60.6345 80.0761 62.8841 78.025C65.1343 75.9738 65.2954 72.4873 63.2443 70.2376C57.7591 64.2201 42.9163 53.4051 19.3947 57.9999C16.4069 58.5837 14.4576 61.4791 15.0414 64.4674C15.6252 67.4551 18.5206 69.4045 21.5089 68.8207Z" fill="url(#paint22_radial_161_1441)"/>
<path fill-rule="evenodd" clip-rule="evenodd" d="M21.5089 68.8207C40.3973 65.1304 51.5588 73.784 55.0968 77.6648C57.148 79.915 60.6345 80.0761 62.8841 78.025C65.1343 75.9738 65.2954 72.4873 63.2443 70.2376C57.7591 64.2201 42.9163 53.4051 19.3947 57.9999C16.4069 58.5837 14.4576 61.4791 15.0414 64.4674C15.6252 67.4551 18.5206 69.4045 21.5089 68.8207Z" fill="url(#paint23_radial_161_1441)"/>
<path fill-rule="evenodd" clip-rule="evenodd" d="M67.704 10.932C64.9525 11.0607 62.8262 13.3955 62.9548 16.1471C63.1318 19.9354 63.8216 26.2462 65.467 32.9873C66.8425 38.6218 68.9603 44.8714 72.2211 50.2294C71.4325 54.4094 71.4115 59.3418 72.2773 64.9504C72.6973 67.6725 75.2446 69.5389 77.9672 69.1189C80.6893 68.6983 82.5557 66.151 82.1357 63.4289C81.942 62.1736 81.8044 60.9987 81.7162 59.8988C82.6843 60.4039 83.6755 60.7997 84.6877 61.0822C88.6415 62.1868 92.4336 61.4213 95.3998 59.4452C101.036 55.6915 103.634 47.4762 99.2717 40.76C95.1221 34.3709 86.4738 32.6338 79.8971 37.1794C79.139 37.7036 78.4271 38.2942 77.7635 38.9495C76.714 36.296 75.8515 33.4647 75.1574 30.6216C73.6811 24.5747 73.0695 18.9065 72.9188 15.6812C72.7902 12.9296 70.4555 10.8034 67.704 10.932ZM83.1763 48.4196C83.9333 46.8429 84.8326 45.894 85.5692 45.385C87.6267 43.963 89.8879 44.6253 90.9064 46.1932C91.9984 47.8745 91.4209 50.1105 89.87 51.1437C89.2426 51.5613 88.4389 51.7733 87.3721 51.4752C86.4066 51.2054 84.9292 50.422 83.1763 48.4196Z" fill="url(#paint24_linear_161_1441)"/>
<path fill-rule="evenodd" clip-rule="evenodd" d="M67.704 10.932C64.9525 11.0607 62.8262 13.3955 62.9548 16.1471C63.1318 19.9354 63.8216 26.2462 65.467 32.9873C66.8425 38.6218 68.9603 44.8714 72.2211 50.2294C71.4325 54.4094 71.4115 59.3418 72.2773 64.9504C72.6973 67.6725 75.2446 69.5389 77.9672 69.1189C80.6893 68.6983 82.5557 66.151 82.1357 63.4289C81.942 62.1736 81.8044 60.9987 81.7162 59.8988C82.6843 60.4039 83.6755 60.7997 84.6877 61.0822C88.6415 62.1868 92.4336 61.4213 95.3998 59.4452C101.036 55.6915 103.634 47.4762 99.2717 40.76C95.1221 34.3709 86.4738 32.6338 79.8971 37.1794C79.139 37.7036 78.4271 38.2942 77.7635 38.9495C76.714 36.296 75.8515 33.4647 75.1574 30.6216C73.6811 24.5747 73.0695 18.9065 72.9188 15.6812C72.7902 12.9296 70.4555 10.8034 67.704 10.932ZM83.1763 48.4196C83.9333 46.8429 84.8326 45.894 85.5692 45.385C87.6267 43.963 89.8879 44.6253 90.9064 46.1932C91.9984 47.8745 91.4209 50.1105 89.87 51.1437C89.2426 51.5613 88.4389 51.7733 87.3721 51.4752C86.4066 51.2054 84.9292 50.422 83.1763 48.4196Z" fill="url(#paint25_radial_161_1441)"/>
<path fill-rule="evenodd" clip-rule="evenodd" d="M67.704 10.932C64.9525 11.0607 62.8262 13.3955 62.9548 16.1471C63.1318 19.9354 63.8216 26.2462 65.467 32.9873C66.8425 38.6218 68.9603 44.8714 72.2211 50.2294C71.4325 54.4094 71.4115 59.3418 72.2773 64.9504C72.6973 67.6725 75.2446 69.5389 77.9672 69.1189C80.6893 68.6983 82.5557 66.151 82.1357 63.4289C81.942 62.1736 81.8044 60.9987 81.7162 59.8988C82.6843 60.4039 83.6755 60.7997 84.6877 61.0822C88.6415 62.1868 92.4336 61.4213 95.3998 59.4452C101.036 55.6915 103.634 47.4762 99.2717 40.76C95.1221 34.3709 86.4738 32.6338 79.8971 37.1794C79.139 37.7036 78.4271 38.2942 77.7635 38.9495C76.714 36.296 75.8515 33.4647 75.1574 30.6216C73.6811 24.5747 73.0695 18.9065 72.9188 15.6812C72.7902 12.9296 70.4555 10.8034 67.704 10.932ZM83.1763 48.4196C83.9333 46.8429 84.8326 45.894 85.5692 45.385C87.6267 43.963 89.8879 44.6253 90.9064 46.1932C91.9984 47.8745 91.4209 50.1105 89.87 51.1437C89.2426 51.5613 88.4389 51.7733 87.3721 51.4752C86.4066 51.2054 84.9292 50.422 83.1763 48.4196Z" fill="url(#paint26_radial_161_1441)"/>
<path fill-rule="evenodd" clip-rule="evenodd" d="M67.704 10.932C64.9525 11.0607 62.8262 13.3955 62.9548 16.1471C63.1318 19.9353 63.8216 26.2462 65.467 32.9873C66.8425 38.6218 68.9603 44.8714 72.2211 50.2294C71.4325 54.4094 71.4115 59.3418 72.2773 64.9504C72.6973 67.6725 75.2446 69.5389 77.9672 69.1189C80.6894 68.6983 82.5557 66.151 82.1357 63.4289C81.942 62.1736 81.8044 60.9987 81.7162 59.8988C82.6843 60.4039 83.6755 60.7997 84.6877 61.0822C88.6415 62.1868 92.4336 61.4213 95.3998 59.4452C101.036 55.6915 103.634 47.4762 99.2717 40.76C95.1221 34.3709 86.4738 32.6338 79.8971 37.1794C79.139 37.7036 78.4271 38.2942 77.7635 38.9495C76.714 36.296 75.8515 33.4647 75.1574 30.6216C73.6811 24.5747 73.0695 18.9065 72.9188 15.6812C72.7902 12.9296 70.4555 10.8034 67.704 10.932ZM83.1763 48.4196C83.9333 46.8429 84.8326 45.894 85.5692 45.385C87.6267 43.963 89.8879 44.6253 90.9064 46.1932C91.9984 47.8745 91.4209 50.1105 89.87 51.1437C89.2426 51.5613 88.4389 51.7733 87.3721 51.4752C86.4066 51.2054 84.9292 50.422 83.1763 48.4196Z" fill="url(#paint27_radial_161_1441)"/>
<path fill-rule="evenodd" clip-rule="evenodd" d="M95.3319 118.683C98.9239 116.696 102.668 114.291 106.435 111.514C100.731 104.445 90.5428 95.172 77.2593 88.4761C55.4329 77.4742 31.3669 83.4456 21.561 87.3332C18.1915 88.6688 16.543 92.4829 17.8786 95.8524C19.2142 99.2213 23.0283 100.87 26.3978 99.5342C34.8025 96.2026 54.4569 91.6802 71.3514 100.196C82.4946 105.813 90.7801 113.365 95.3319 118.683Z" fill="url(#paint28_linear_161_1441)"/>
<path fill-rule="evenodd" clip-rule="evenodd" d="M95.3319 118.683C98.9239 116.696 102.668 114.291 106.435 111.514C100.731 104.445 90.5428 95.172 77.2593 88.4761C55.4329 77.4742 31.3669 83.4456 21.561 87.3332C18.1915 88.6688 16.543 92.4829 17.8786 95.8524C19.2142 99.2213 23.0283 100.87 26.3978 99.5342C34.8025 96.2026 54.4569 91.6802 71.3514 100.196C82.4946 105.813 90.7801 113.365 95.3319 118.683Z" fill="url(#paint29_radial_161_1441)"/>
<path fill-rule="evenodd" clip-rule="evenodd" d="M95.3319 118.683C98.9239 116.696 102.668 114.291 106.435 111.514C100.731 104.445 90.5428 95.172 77.2593 88.4761C55.4329 77.4742 31.3669 83.4456 21.561 87.3332C18.1915 88.6688 16.543 92.4829 17.8786 95.8524C19.2142 99.2213 23.0283 100.87 26.3978 99.5342C34.8025 96.2026 54.4569 91.6802 71.3514 100.196C82.4946 105.813 90.7801 113.365 95.3319 118.683Z" fill="url(#paint30_radial_161_1441)"/>
<path fill-rule="evenodd" clip-rule="evenodd" d="M95.3319 118.683C98.9239 116.696 102.668 114.291 106.435 111.514C100.731 104.445 90.5428 95.172 77.2593 88.4761C55.4329 77.4742 31.3669 83.4456 21.561 87.3332C18.1915 88.6688 16.543 92.4829 17.8786 95.8524C19.2142 99.2213 23.0283 100.87 26.3978 99.5342C34.8025 96.2026 54.4569 91.6802 71.3514 100.196C82.4946 105.813 90.7801 113.365 95.3319 118.683Z" fill="url(#paint31_radial_161_1441)"/>
<path fill-rule="evenodd" clip-rule="evenodd" d="M114.493 34.9301C116.255 31.763 120.251 30.6242 123.418 32.3866C126.585 34.1489 127.724 38.145 125.961 41.312C123.3 46.0945 120.023 52.846 119.604 61.5394C119.239 69.1157 121.023 78.7243 128.276 90.2506C125.766 93.5718 122.736 97.0142 119.269 100.432C109.043 85.5566 105.948 72.2332 106.494 60.9068C107.059 49.195 111.493 40.3195 114.493 34.9301Z" fill="url(#paint32_radial_161_1441)"/>
<path fill-rule="evenodd" clip-rule="evenodd" d="M114.493 34.9301C116.255 31.763 120.251 30.6242 123.418 32.3866C126.585 34.1489 127.724 38.145 125.961 41.312C123.3 46.0945 120.023 52.846 119.604 61.5394C119.239 69.1157 121.023 78.7243 128.276 90.2506C125.766 93.5718 122.736 97.0142 119.269 100.432C109.043 85.5566 105.948 72.2332 106.494 60.9068C107.059 49.195 111.493 40.3195 114.493 34.9301Z" fill="url(#paint33_radial_161_1441)"/>
<path d="M100.511 43.1104C100.188 42.3133 99.781 41.5269 99.2828 40.7601C95.1332 34.371 86.4848 32.6339 79.9082 37.1796C79.1501 37.7037 78.4382 38.2942 77.7746 38.9495C77.5598 38.4074 77.3535 37.8578 77.1545 37.3022C77.1446 37.3358 77.1351 37.3692 77.1257 37.4025C78.4765 41.6578 81.5078 46.2132 83.1915 48.4108C83.948 46.8394 84.8453 45.8931 85.5803 45.3851C87.6377 43.963 89.8989 44.6254 90.9174 46.1933C90.9573 46.2543 90.9946 46.316 91.0298 46.3784L100.511 43.1104Z" fill="url(#paint34_radial_161_1441)"/>
<path d="M100.511 43.1104C100.188 42.3133 99.781 41.5269 99.2828 40.7601C95.1332 34.371 86.4848 32.6339 79.9082 37.1796C79.1501 37.7037 78.4382 38.2942 77.7746 38.9495C77.5598 38.4074 77.3535 37.8578 77.1545 37.3022C77.1446 37.3358 77.1351 37.3692 77.1257 37.4025C78.4765 41.6578 81.5078 46.2132 83.1915 48.4108C83.948 46.8394 84.8453 45.8931 85.5803 45.3851C87.6377 43.963 89.8989 44.6254 90.9174 46.1933C90.9573 46.2543 90.9946 46.316 91.0298 46.3784L100.511 43.1104Z" fill="url(#paint35_radial_161_1441)"/>
<path d="M72.2314 50.2339C71.4434 54.4131 71.4229 59.3439 72.2881 64.9504C72.7081 67.6725 75.2554 69.5389 77.978 69.1183C80.7002 68.6983 82.5665 66.1511 82.1465 63.4289C81.9528 62.1763 81.8158 61.0029 81.7276 59.9051C76.5721 56.6685 73.1685 52.3616 72.2314 50.2339Z" fill="#064530"/>
<path d="M72.2314 50.2339C71.4434 54.4131 71.4229 59.3439 72.2881 64.9504C72.7081 67.6725 75.2554 69.5389 77.978 69.1183C80.7002 68.6983 82.5665 66.1511 82.1465 63.4289C81.9528 62.1763 81.8158 61.0029 81.7276 59.9051C76.5721 56.6685 73.1685 52.3616 72.2314 50.2339Z" fill="url(#paint36_radial_161_1441)"/>
<path d="M65.7739 15.832C66.2118 23.7617 69.6458 42.4758 79.8833 53.8944" stroke="url(#paint37_linear_161_1441)" stroke-width="0.3" stroke-linecap="round"/>
<defs>
<linearGradient id="paint0_linear_161_1441" x1="145.836" y1="104.918" x2="103.508" y2="141.668" gradientUnits="userSpaceOnUse">
<stop stop-color="#B3843C"/>
<stop offset="1" stop-color="#F17A61"/>
</linearGradient>
<linearGradient id="paint1_linear_161_1441" x1="150.514" y1="110.605" x2="138.125" y2="113.121" gradientUnits="userSpaceOnUse">
<stop stop-color="#B1853B"/>
<stop offset="1" stop-color="#B1853B" stop-opacity="0"/>
</linearGradient>
<linearGradient id="paint2_linear_161_1441" x1="64.3869" y1="125.098" x2="85.2971" y2="128.543" gradientUnits="userSpaceOnUse">
<stop stop-color="#F9C26C"/>
<stop offset="1" stop-color="#F9C26C" stop-opacity="0"/>
</linearGradient>
<linearGradient id="paint3_linear_161_1441" x1="109.436" y1="65.0506" x2="122.867" y2="87.8556" gradientUnits="userSpaceOnUse">
<stop stop-color="#E6BF69"/>
<stop offset="1" stop-color="#E6BF69" stop-opacity="0"/>
</linearGradient>
<linearGradient id="paint4_linear_161_1441" x1="114.008" y1="110.695" x2="86.7586" y2="86.3745" gradientUnits="userSpaceOnUse">
<stop stop-color="#FCCB57"/>
<stop offset="1" stop-color="#F5BD55"/>
</linearGradient>
<linearGradient id="paint5_linear_161_1441" x1="130.907" y1="69.3163" x2="67.0864" y2="127.887" gradientUnits="userSpaceOnUse">
<stop stop-color="#F3AB2C"/>
<stop offset="1" stop-color="#B57F1E"/>
</linearGradient>
<radialGradient id="paint6_radial_161_1441" cx="0" cy="0" r="1" gradientUnits="userSpaceOnUse" gradientTransform="translate(126.477 91.1365) rotate(-110.621) scale(34.0069 9.52492)">
<stop offset="0.423414" stop-color="#CA851E"/>
<stop offset="1" stop-color="#CA851E" stop-opacity="0"/>
</radialGradient>
<radialGradient id="paint7_radial_161_1441" cx="0" cy="0" r="1" gradientUnits="userSpaceOnUse" gradientTransform="translate(99.4069 114.27) rotate(-146.648) scale(34.1751 20.0133)">
<stop stop-color="#BC7F28"/>
<stop offset="1" stop-color="#BC7F28" stop-opacity="0"/>
</radialGradient>
<radialGradient id="paint8_radial_161_1441" cx="0" cy="0" r="1" gradientUnits="userSpaceOnUse" gradientTransform="translate(86.6921 82.2775) rotate(41.332) scale(9.06733)">
<stop stop-color="#7DFF6F"/>
<stop offset="1" stop-color="#064530"/>
</radialGradient>
<radialGradient id="paint9_radial_161_1441" cx="0" cy="0" r="1" gradientUnits="userSpaceOnUse" gradientTransform="translate(88.2388 83.1296) rotate(19.949) scale(9.10555 9.98083)">
<stop offset="0.534713" stop-color="#064530" stop-opacity="0"/>
<stop offset="1" stop-color="#064530"/>
</radialGradient>
<radialGradient id="paint10_radial_161_1441" cx="0" cy="0" r="1" gradientUnits="userSpaceOnUse" gradientTransform="translate(33.9775 117.588) rotate(45.431) scale(10.382)">
<stop stop-color="#FDD46C"/>
<stop offset="1" stop-color="#F09C53"/>
</radialGradient>
<radialGradient id="paint11_radial_161_1441" cx="0" cy="0" r="1" gradientUnits="userSpaceOnUse" gradientTransform="translate(36.4612 117.037) rotate(79.173) scale(10.2839)">
<stop offset="0.792052" stop-color="#E76260" stop-opacity="0"/>
<stop offset="0.964251" stop-color="#E76260"/>
</radialGradient>
<radialGradient id="paint12_radial_161_1441" cx="0" cy="0" r="1" gradientUnits="userSpaceOnUse" gradientTransform="translate(34.6237 121.3) rotate(-32.442) scale(10.4145 12.2645)">
<stop offset="0.482355" stop-color="#AA885A" stop-opacity="0"/>
<stop offset="0.90682" stop-color="#AA885A"/>
</radialGradient>
<radialGradient id="paint13_radial_161_1441" cx="0" cy="0" r="1" gradientUnits="userSpaceOnUse" gradientTransform="translate(38.4049 34.3742) rotate(47.613) scale(10.8156)">
<stop stop-color="#FF46AA"/>
<stop offset="1" stop-color="#E3189D"/>
</radialGradient>
<radialGradient id="paint14_radial_161_1441" cx="0" cy="0" r="1" gradientUnits="userSpaceOnUse" gradientTransform="translate(40.2623 37.9804) rotate(-6.71) scale(9.82904 13.1543)">
<stop offset="0.522105" stop-color="#B63173" stop-opacity="0"/>
<stop offset="1" stop-color="#B63173"/>
</radialGradient>
<radialGradient id="paint15_radial_161_1441" cx="0" cy="0" r="1" gradientUnits="userSpaceOnUse" gradientTransform="translate(111.409 15.1494) rotate(40.426) scale(9.6662)">
<stop stop-color="#FFF46F"/>
<stop offset="1" stop-color="#EFB93C"/>
</radialGradient>
<radialGradient id="paint16_radial_161_1441" cx="0" cy="0" r="1" gradientUnits="userSpaceOnUse" gradientTransform="translate(112.792 16.6549) rotate(-1.481) scale(10.0519 9.57059)">
<stop offset="0.558644" stop-color="#AA904B" stop-opacity="0"/>
<stop offset="0.943632" stop-color="#AA904B"/>
</radialGradient>
<radialGradient id="paint17_radial_161_1441" cx="0" cy="0" r="1" gradientUnits="userSpaceOnUse" gradientTransform="translate(113.926 14.1094) rotate(77.661) scale(10.7483)">
<stop offset="0.771901" stop-color="#C47072" stop-opacity="0"/>
<stop offset="1" stop-color="#C47072"/>
</radialGradient>
<radialGradient id="paint18_radial_161_1441" cx="0" cy="0" r="1" gradientUnits="userSpaceOnUse" gradientTransform="translate(137.603 40.1163) rotate(47.613) scale(10.8156)">
<stop stop-color="#FF46AA"/>
<stop offset="1" stop-color="#E3189D"/>
</radialGradient>
<radialGradient id="paint19_radial_161_1441" cx="0" cy="0" r="1" gradientUnits="userSpaceOnUse" gradientTransform="translate(139.46 43.7226) rotate(-6.71) scale(9.82905 13.1543)">
<stop offset="0.522105" stop-color="#B63173" stop-opacity="0"/>
<stop offset="1" stop-color="#B63173"/>
</radialGradient>
<radialGradient id="paint20_radial_161_1441" cx="0" cy="0" r="1" gradientUnits="userSpaceOnUse" gradientTransform="translate(109.086 131.66) rotate(46.79) scale(22.2847 48.7909)">
<stop stop-color="#3365FF"/>
<stop offset="1" stop-color="#356DB9"/>
</radialGradient>
<radialGradient id="paint21_radial_161_1441" cx="0" cy="0" r="1" gradientUnits="userSpaceOnUse" gradientTransform="translate(129.102 147.082) rotate(48.402) scale(13.7559 34.7966)">
<stop stop-color="#3365FF"/>
<stop offset="1" stop-color="#356DB9"/>
</radialGradient>
<radialGradient id="paint22_radial_161_1441" cx="0" cy="0" r="1" gradientUnits="userSpaceOnUse" gradientTransform="translate(23.4461 62.4262) rotate(11.717) scale(22.6198 8.43896)">
<stop stop-color="#FFA235"/>
<stop offset="1" stop-color="#C07216"/>
</radialGradient>
<radialGradient id="paint23_radial_161_1441" cx="0" cy="0" r="1" gradientUnits="userSpaceOnUse" gradientTransform="translate(39.8109 80.473) rotate(-52.645) scale(23.3227 41.5657)">
<stop offset="0.752144" stop-color="#944E1A" stop-opacity="0"/>
<stop offset="1" stop-color="#944E1A"/>
</radialGradient>
<linearGradient id="paint24_linear_161_1441" x1="67.9229" y1="10.9265" x2="91.4529" y2="67.3202" gradientUnits="userSpaceOnUse">
<stop stop-color="#89DC80"/>
<stop offset="1" stop-color="#064530"/>
</linearGradient>
<radialGradient id="paint25_radial_161_1441" cx="0" cy="0" r="1" gradientUnits="userSpaceOnUse" gradientTransform="translate(73.0879 29.2459) rotate(51.783) scale(40.7434 24.9218)">
<stop offset="0.80204" stop-color="#064530" stop-opacity="0"/>
<stop offset="0.950917" stop-color="#032016"/>
</radialGradient>
<radialGradient id="paint26_radial_161_1441" cx="0" cy="0" r="1" gradientUnits="userSpaceOnUse" gradientTransform="translate(75.1259 24.5274) rotate(167.905) scale(5.87255 19.7145)">
<stop stop-color="#51C644"/>
<stop offset="1" stop-color="#89DC80" stop-opacity="0"/>
</radialGradient>
<radialGradient id="paint27_radial_161_1441" cx="0" cy="0" r="1" gradientUnits="userSpaceOnUse" gradientTransform="translate(63.4772 11.8125) rotate(38.047) scale(7.18746 6.46202)">
<stop stop-color="#9AFF8F"/>
<stop offset="1" stop-color="white" stop-opacity="0"/>
</radialGradient>
<linearGradient id="paint28_linear_161_1441" x1="92.1362" y1="113.898" x2="21.7379" y2="95.4492" gradientUnits="userSpaceOnUse">
<stop stop-color="#064530"/>
<stop offset="1" stop-color="#89DC80"/>
</linearGradient>
<radialGradient id="paint29_radial_161_1441" cx="0" cy="0" r="1" gradientUnits="userSpaceOnUse" gradientTransform="translate(66.0962 125.409) rotate(-50.162) scale(41.8951 105.019)">
<stop offset="0.622552" stop-color="#526579" stop-opacity="0"/>
<stop offset="0.962126" stop-color="#526579"/>
</radialGradient>
<radialGradient id="paint30_radial_161_1441" cx="0" cy="0" r="1" gradientUnits="userSpaceOnUse" gradientTransform="translate(42.5662 102.799) rotate(85.6013) scale(14.3808 28.9127)">
<stop offset="0.396078" stop-color="#3D9E7B"/>
<stop offset="1" stop-color="#538E4D" stop-opacity="0"/>
</radialGradient>
<radialGradient id="paint31_radial_161_1441" cx="0" cy="0" r="1" gradientUnits="userSpaceOnUse" gradientTransform="translate(21.2423 90.7121) rotate(-111.181) scale(3.94291 3.10944)">
<stop stop-color="#A1FA97"/>
<stop offset="1" stop-color="#9EFF94" stop-opacity="0"/>
</radialGradient>
<radialGradient id="paint32_radial_161_1441" cx="0" cy="0" r="1" gradientUnits="userSpaceOnUse" gradientTransform="translate(111.07 33.7903) rotate(80.5771) scale(38.3872 14.3813)">
<stop stop-color="#F3AB2C"/>
<stop offset="1" stop-color="#BF6D0C"/>
</radialGradient>
<radialGradient id="paint33_radial_161_1441" cx="0" cy="0" r="1" gradientUnits="userSpaceOnUse" gradientTransform="translate(131.112 73.3745) rotate(148.824) scale(25.2444 79.2241)">
<stop offset="0.803698" stop-color="#944E1A" stop-opacity="0"/>
<stop offset="1" stop-color="#944E1A"/>
</radialGradient>
<radialGradient id="paint34_radial_161_1441" cx="0" cy="0" r="1" gradientUnits="userSpaceOnUse" gradientTransform="translate(81.7982 49.978) rotate(-60.77) scale(14.3763 10.7464)">
<stop stop-color="#053525"/>
<stop offset="1" stop-color="#064530" stop-opacity="0"/>
</radialGradient>
<radialGradient id="paint35_radial_161_1441" cx="0" cy="0" r="1" gradientUnits="userSpaceOnUse" gradientTransform="translate(77.1257 39.1284) rotate(-52.343) scale(9.73933 3.94594)">
<stop stop-color="#72B76B"/>
<stop offset="1" stop-color="#4C7049" stop-opacity="0"/>
</radialGradient>
<radialGradient id="paint36_radial_161_1441" cx="0" cy="0" r="1" gradientUnits="userSpaceOnUse" gradientTransform="translate(72.7464 49.7929) rotate(85.1502) scale(13.5838 7.56)">
<stop stop-color="#89DC80"/>
<stop offset="1" stop-color="#89DC80" stop-opacity="0"/>
</radialGradient>
<linearGradient id="paint37_linear_161_1441" x1="66.9226" y1="10.2539" x2="87.4302" y2="57.5038" gradientUnits="userSpaceOnUse">
<stop stop-color="#C1FFBA"/>
<stop offset="1" stop-color="#1B7A5A"/>
</linearGradient>
</defs>
</svg>
