<svg width="23" height="23" viewBox="0 0 23 23" fill="none" xmlns="http://www.w3.org/2000/svg">
<path fill-rule="evenodd" clip-rule="evenodd" d="M17.1944 15.0731C18.3302 13.5076 19 11.582 19 9.5C19 4.2533 14.7467 0 9.5 0C4.2533 0 0 4.2533 0 9.5C0 14.7467 4.2533 19 9.5 19C11.582 19 13.5076 18.3302 15.0731 17.1944L20.4393 22.5607C21.0251 23.1465 21.9749 23.1465 22.5607 22.5607C23.1465 21.9749 23.1465 21.0251 22.5607 20.4393L17.1944 15.0731ZM16 9.5C16 13.0898 13.0898 16 9.5 16C5.91016 16 3 13.0898 3 9.5C3 5.91016 5.91016 3 9.5 3C13.0898 3 16 5.91016 16 9.5Z" fill="black"/>
</svg>
