<svg width="28" height="23" viewBox="0 0 28 23" fill="none" xmlns="http://www.w3.org/2000/svg">
<path d="M10.6537 20.6072C10.6537 21.527 9.92593 22.2446 9.01621 22.2446C8.09641 22.2446 7.3686 21.527 7.3686 20.6072C7.3686 19.6975 8.09641 18.9697 9.01621 18.9697C9.92593 18.9697 10.6537 19.6975 10.6537 20.6072ZM20.1146 20.6072C20.1146 21.527 19.3868 22.2446 18.467 22.2446C17.5573 22.2446 16.8194 21.527 16.8194 20.6072C16.8194 19.6975 17.5573 18.9697 18.467 18.9697C19.3868 18.9697 20.1146 19.6975 20.1146 20.6072ZM5.71089 3.54514L5.90004 4.82884H15.6619C15.5963 5.173 15.566 5.52836 15.566 5.89017C15.566 6.04707 15.5717 6.20273 15.5897 6.35513H6.12499L6.98882 12.2177H19.8821C20.0295 12.2177 20.1608 12.1936 20.276 12.1477C20.8497 12.32 21.4576 12.4097 22.0856 12.4097C22.1217 12.4097 22.1578 12.4094 22.1928 12.4041C21.8168 13.2414 21.1195 13.7338 20.0337 13.7338H7.21222L7.3686 14.7952C7.4596 15.4117 7.81332 15.8161 8.38949 15.8161H20.0135C20.4077 15.8161 20.7514 16.1395 20.7514 16.5742C20.7514 17.0088 20.4077 17.3322 20.0135 17.3322H8.21768C6.75206 17.3322 5.99397 16.4326 5.7817 14.9974L4.16443 3.89892H0.747982C0.343669 3.89892 0 3.54514 0 3.13073C0 2.72641 0.343669 2.37263 0.747982 2.37263H4.29581C5.3268 2.37263 5.60989 2.76684 5.71089 3.54514Z" fill="#064530"/>
<path d="M27.22 5.89016C27.22 8.70014 24.8649 11.0249 22.0852 11.0249C19.2651 11.0249 16.9504 8.72033 16.9504 5.89016C16.9504 3.08017 19.2651 0.755371 22.0852 0.755371C24.8952 0.755371 27.22 3.08017 27.22 5.89016ZM21.2361 8.40697C21.2361 8.83151 21.5798 9.17523 21.9942 9.17523C22.4187 9.17523 22.7524 8.83151 22.7625 8.40697C22.7625 7.99259 22.4289 7.64892 21.9942 7.64892C21.5798 7.64892 21.2361 7.99259 21.2361 8.40697ZM20.1142 3.8888C20.1142 4.19203 20.3265 4.4043 20.6398 4.4043C20.9228 4.4043 21.0643 4.21225 21.2564 4.02021C21.4788 3.78773 21.7617 3.58557 22.2267 3.58557C22.7524 3.58557 23.096 3.85848 23.096 4.283C23.096 4.74797 22.7826 4.95012 22.2368 5.32411C21.7921 5.63746 21.4484 5.96091 21.4484 6.58759C21.4484 6.5977 21.4484 6.60781 21.4484 6.62802C21.4484 6.97169 21.6506 7.17385 21.9942 7.17385C22.3581 7.17385 22.5299 6.99191 22.5603 6.67857C22.6007 6.27425 22.813 6.09231 23.2274 5.77897C23.8136 5.35444 24.2887 5.02088 24.2887 4.23247C24.2887 3.25201 23.47 2.54446 22.2167 2.54446C21.1452 2.54446 20.1142 3.1105 20.1142 3.8888Z" fill="#064530"/>
</svg>
