<svg width="16" height="14" viewBox="0 0 16 14" fill="none" xmlns="http://www.w3.org/2000/svg">
<path d="M0.800049 3.79999L10.4 3.79999M10.4 3.79999C10.4 5.12548 11.4746 6.19999 12.8 6.19999C14.1255 6.19999 15.2 5.12548 15.2 3.79999C15.2 2.47451 14.1255 1.39999 12.8 1.39999C11.4746 1.39999 10.4 2.47451 10.4 3.79999ZM5.60005 10.2L15.2 10.2M5.60005 10.2C5.60005 11.5255 4.52553 12.6 3.20005 12.6C1.87457 12.6 0.800049 11.5255 0.800049 10.2C0.800049 8.87451 1.87457 7.79999 3.20005 7.79999C4.52553 7.79999 5.60005 8.87451 5.60005 10.2Z" stroke="#656565" stroke-width="1.6" stroke-linecap="round" stroke-linejoin="round"/>
</svg>
